<svg style="max-height:18px" width="24" height="24" xmlns="http://www.w3.org/2000/svg" viewBox="0 0 303.6 303.6" fill="gray">
  <path d="M291.503 11.6c-10.4-10.4-37.2-11.6-48.4-11.6-50.4 0-122.4 18.4-173.6 69.6-77.2 76.8-78.4 201.6-58.4 222 10.8 10.4 35.6 12 49.2 12 49.6 0 121.2-18.4 173.2-70 76.4-76.4 80.4-199.6 58-222zm-231.2 277.2c-24.4 0-36-4.8-38.8-7.6-5.2-5.2-8.4-24.4-6.8-49.6l57.2 56.8c-4 .4-8 .4-11.6.4zm162.8-66c-38.8 38.8-90.4 57.2-132.4 63.6l-74-73.6c6-42 24-94 63.2-133.2 38-38 88-56.4 130.8-62.8l75.6 75.6c-6 40.8-24.4 91.6-63.2 130.4zm65.2-148.8l-58.8-59.2c4.8-.4 9.2-.4 13.6-.4 24.4 0 35.6 4.8 38 7.2 5.6 5.6 9.2 25.6 7.2 52.4z"/>
  <path d="M215.103 139.6l-20.8-20.8 13.2-13.2c2.8-2.8 2.8-7.6 0-10.4s-7.6-2.8-10.4 0l-13.2 13.6-20.8-20.8c-2.8-2.8-7.6-2.8-10.4 0-2.8 2.8-2.8 7.6 0 10.4l20.8 20.8-22 22-20.8-20.8c-2.8-2.8-7.6-2.8-10.4 0s-2.8 7.6 0 10.4l20.8 20.8-22 22-20.8-20.8c-2.8-2.8-7.6-2.8-10.4 0s-2.8 7.6 0 10.4l20.8 20.8-13.2 13.2c-2.8 2.8-2.8 7.6 0 10.4 1.6 1.6 3.2 2 5.2 2s3.6-.8 5.2-2l13.2-13.2 20.8 20.8c1.6 1.6 3.2 2 5.2 2s3.6-.8 5.2-2c2.8-2.8 2.8-7.6 0-10.4l-20.8-21.2 22-22 20.8 20.8c1.6 1.6 3.2 2 5.2 2s3.6-.8 5.2-2c2.8-2.8 2.8-7.6 0-10.4l-20.8-20.8 22-22 20.8 20.8c1.6 1.6 3.2 2 5.2 2s3.6-.8 5.2-2c2.8-2.8 2.8-7.6 0-10.4zM169.103 47.6c-1.2-4-5.2-6-9.2-4.8-3.2 1.2-80.8 25.6-110.4 98-1.6 4 0 8.4 4 9.6.8.4 2 .4 2.8.4 2.8 0 5.6-1.6 6.8-4.4 27.2-66 100.4-89.6 101.2-89.6 4-1.2 6-5.2 4.8-9.2z"/>
</svg>