<svg style="max-height:18px" xmlns="http://www.w3.org/2000/svg" viewBox="0 0 512 512" width="24" height="24" fill="gray">
  <path d="M490.815 3.784C480.082 5.7 227.049 51.632 148.477 130.203c-39.153 39.153-64.259 87.884-70.694 137.218-5.881 45.081 4.347 85.929 28.878 116.708L.001 490.789 21.212 512l106.657-106.657c33.094 26.378 75.092 34.302 116.711 28.874 49.334-6.435 98.065-31.541 137.218-70.695C460.368 284.951 506.3 31.918 508.216 21.185L511.999 0l-21.184 3.784zm-43.303 39.493L309.407 181.383l-7.544-98.076c46.386-15.873 97.819-29.415 145.649-40.03zm-174.919 50.64l8.877 115.402-78.119 78.119-11.816-153.606c19.947-13.468 47.183-26.875 81.058-39.915zm-109.281 64.119l12.103 157.338-47.36 47.36c-39.246-52.892-24.821-139.885 35.257-204.698zm57.113 247.849c-26.548-.001-51.267-7.176-71.161-21.938l47.363-47.363 157.32 12.102c-40.432 37.475-89.488 57.201-133.522 57.199zm157.743-85.421l-153.605-11.816 78.118-78.118 115.403 8.877c-13.04 33.876-26.448 61.111-39.916 81.057zm50.526-110.326l-98.076-7.544L468.725 64.485c-10.589 47.717-24.147 99.232-40.031 145.653z"/>
</svg>