<svg style="max-height:18px" xmlns="http://www.w3.org/2000/svg" width="24" height="24" viewBox="0 0 792 792" fill="gray">
  <path d="M425.512 741.214H365.58c-14.183 0-25.164 11.439-25.164 25.622S351.397 792 365.58 792h59.932c15.101 0 26.54-10.981 26.54-25.164s-11.44-25.622-26.54-25.622zM472.638 671.209H319.821c-14.183 0-26.081 10.98-26.081 25.163s11.898 25.164 26.081 25.164h152.817c14.183 0 25.164-10.981 25.164-25.164s-10.982-25.163-25.164-25.163zM639.188 138.634c-25.164-42.548-59.181-76.135-102.49-101.113C493.526 12.621 446.566 0 395.771 0 320.28 0 247.19 31.684 197.205 81.445c-49.761 49.527-81.904 121.24-81.904 196.282 0 33.861 7.779 68.629 22.879 103.866 15.1 35.228 38.565 78.614 70.005 130.396 7.448 12.269 15.764 31.205 25.623 56.271 12.104 30.757 22.87 51.713 31.566 63.602 5.027 6.872 11.899 10.063 20.596 10.063h228.766c9.605 0 16.359-4.188 21.504-11.898 6.754-10.132 13.987-27.516 22.42-51.693 8.951-25.691 16.838-43.982 23.329-55.364 30.571-53.587 54.446-99.747 70.464-137.717 16.018-37.979 24.246-74.124 24.246-107.526 0-49.878-12.347-96.545-37.511-139.093zm-35.696 232.437c-15.012 34.348-36.398 76.974-65.427 126.736-9.41 16.125-18.458 37.003-26.989 63.592-3.367 10.474-7.32 20.596-11.439 30.2H300.153c-6.862-11.439-12.26-25.837-18.761-42.089-12.718-31.801-23.338-52.621-30.2-64.061-28.824-48.043-49.868-87.39-64.051-118.957s-20.537-60.859-21.044-88.766c-2.235-121.718 106.13-228.991 229.674-226.941 41.631.693 80.527 10.063 115.765 30.659 35.227 20.586 63.134 48.043 83.729 82.812 20.586 34.768 31.108 72.748 31.108 113.47-.001 27.449-7.692 58.596-22.881 93.345z"/>
</svg>