<svg style="max-height:18px" xmlns="http://www.w3.org/2000/svg" width="24" height="24" viewBox="0 0 611.999 611.998" fill="gray">
  <path d="M596.583 15.454C586.226 5.224 573.354.523 558.423.523c-15.597 0-31.901 4.906-49.452 14.599-17.296 9.551-32.851 20.574-46.458 32.524h-.665c-2.655 2.322-10.953 10.287-25.219 24.553-14.272 14.272-26.217 26.223-35.845 36.51L112.401 26.406c-6.896-1.968-12.928.014-17.593 4.645L46.687 78.839c-4.326 4.297-5.805 9.268-4.977 15.597.829 6.287 3.979 10.627 9.629 13.607L280.32 228.839 161.514 347.978l-95.91 3.32c-4.645.164-8.637 1.643-12.276 5.311L5.872 404.397c-4.312 4.34-6.641 9.289-5.643 16.262 1.657 6.967 5.31 11.611 11.618 13.602l117.142 48.787 48.787 117.148c2.421 5.812 6.634 9.621 13.607 11.279h3.313c4.977 0 9.296-1.658 12.942-5.311l47.456-47.457c3.653-3.645 5.494-7.965 5.643-12.275l3.32-95.91 118.807-118.807 121.128 228.99c2.988 5.643 7.32 8.793 13.607 9.621 6.329.836 11.271-1.316 15.597-5.643l47.456-47.457c4.978-4.977 6.945-10.697 4.978-17.586l-82.296-288.389 59.732-59.739c10.287-10.287 21.699-24.149 33.183-45.134 5.777-10.542 10.032-20.886 12.942-31.194 5.722-20.218 3.258-44.07-12.608-59.73zm-59.4 110.176l-67.039 67.372c-5.628 5.657-6.811 11.122-4.977 17.586l81.637 288.388-22.563 22.238L403.438 292.89c-2.98-5.643-7.299-8.963-12.941-9.621-6.301-1.331-11.611.325-16.263 4.977l-141.37 141.37c-2.987 2.986-4.644 6.973-5.643 11.949l-3.32 95.904-22.896 23.236-41.48-98.566c-1.331-4.645-4.553-8.184-9.629-10.287L51.338 411.03l23.229-22.895 95.578-3.654c5.643-.99 9.622-2.654 12.276-5.309l141.37-141.371c4.651-4.645 6.308-9.954 4.984-16.262-.666-5.643-3.986-9.954-9.629-12.942L90.829 87.47l22.231-22.238 288.389 81.637c6.464 1.833 11.951.666 17.587-4.977l28.545-28.539 26.217-25.884 11.278-11.285 1.331-.666c27.873-23.895 55.088-38.16 72.016-38.16 5.969 0 9.954 1.324 11.611 3.979 18.917 18.585-21.099 72.484-32.851 84.293z"/>
</svg>