<svg style="max-height:18px" width="24" height="24"
    xmlns="http://www.w3.org/2000/svg" viewBox="0 0 512 512" fill="gray">
    <path d="M472.928 34.72c-4.384-2.944-9.984-3.52-14.912-1.568-1.088.448-106.528 42.176-195.168.384C186.752-2.4 102.944 14.4 64 25.76V16c0-8.832-7.168-16-16-16S32 7.168 32 16v480c0 8.832 7.168 16 16 16s16-7.168 16-16V315.296c28.352-9.248 112.384-31.232 185.184 3.168 34.592 16.352 70.784 21.792 103.648 21.792 63.2 0 114.016-20.128 117.184-21.408 6.016-2.464 9.984-8.32 9.984-14.848V48c0-5.312-2.656-10.272-7.072-13.28zM448 292.672c-28.512 9.248-112.512 31.136-185.184-3.168C186.752 253.6 102.944 270.4 64 281.76V59.328c28.352-9.248 112.384-31.232 185.184 3.168 76 35.872 159.872 19.104 198.816 7.712v222.464z"/>
</svg>
