<svg style="max-height:18px" width="24" height="24"
    xmlns="http://www.w3.org/2000/svg" viewBox="0 0 511.999 511.999" fill="gray">
    <path d="M413.949 155.583a10.153 10.153 0 0 0-3.24-2.16c-.61-.25-1.24-.44-1.87-.57-3.25-.66-6.701.41-9.03 2.73a10.093 10.093 0 0 0-2.93 7.07 10.098 10.098 0 0 0 1.69 5.56c.36.54.779 1.05 1.24 1.52 1.86 1.86 4.44 2.93 7.07 2.93.65 0 1.31-.07 1.96-.2.63-.13 1.26-.32 1.87-.57a10.146 10.146 0 0 0 3.24-2.16c.47-.47.88-.98 1.25-1.52a10.098 10.098 0 0 0 1.49-3.6 10.038 10.038 0 0 0-2.74-9.03zM115.289 385.873c-.12-.64-.32-1.27-.57-1.87-.25-.6-.55-1.18-.91-1.73-.37-.54-.79-1.06-1.25-1.52a9.57 9.57 0 0 0-1.52-1.24c-.54-.36-1.12-.67-1.72-.92-.61-.25-1.24-.44-1.88-.57a9.847 9.847 0 0 0-3.9 0c-.64.13-1.27.32-1.87.57-.61.25-1.19.56-1.73.92-.55.36-1.06.78-1.52 1.24-.46.46-.88.98-1.24 1.52-.36.55-.67 1.13-.92 1.73-.25.6-.45 1.23-.57 1.87-.13.651-.2 1.3-.2 1.96 0 .65.07 1.3.2 1.95.12.64.32 1.27.57 1.87.25.6.56 1.18.92 1.73.36.54.78 1.06 1.24 1.52.46.46.97.88 1.52 1.24.54.36 1.12.67 1.73.92.6.25 1.23.44 1.87.57s1.3.2 1.95.2c.65 0 1.31-.07 1.95-.2.64-.13 1.27-.32 1.88-.57.6-.25 1.18-.56 1.72-.92.55-.36 1.059-.78 1.52-1.24.46-.46.88-.98 1.25-1.52.36-.55.66-1.13.91-1.73.25-.6.45-1.23.57-1.87.13-.65.2-1.3.2-1.95 0-.66-.07-1.31-.2-1.96z"/>
    <path d="M511.999 222.726c0-14.215-9.228-26.315-22.007-30.624-1.628-74.155-62.456-133.978-136.994-133.978H159.002c-74.538 0-135.366 59.823-136.994 133.978C9.228 196.411 0 208.51 0 222.726a32.076 32.076 0 0 0 3.847 15.203 44.931 44.931 0 0 0-.795 8.427v.708c0 14.06 6.519 26.625 16.693 34.833-10.178 8.275-16.693 20.891-16.693 35.001 0 15.114 7.475 28.515 18.921 36.702v26.668c0 40.588 33.021 73.608 73.608 73.608h320.836c40.588 0 73.608-33.021 73.608-73.608V353.6c11.446-8.186 18.921-21.587 18.921-36.702 0-13.852-6.354-26.385-16.361-34.702 9.983-8.212 16.361-20.656 16.361-34.562v-.708c0-2.985-.294-5.944-.877-8.845a32.082 32.082 0 0 0 3.93-15.355zM44.033 173.229h322.441c5.523 0 10-4.477 10-10s-4.477-10-10-10H49.737c16.896-43.883 59.503-75.106 109.265-75.106h193.996c62.942 0 114.438 49.953 116.934 112.295H42.068c.234-5.848.9-11.588 1.965-17.189zM23.052 316.896c0-13.837 11.257-25.094 25.094-25.094h117.298l55.346 50.188H48.146c-13.837 0-25.094-11.256-25.094-25.094zm.976-62.945c.422.111.847.215 1.275.309 7.421 1.634 14.68 8.002 22.365 14.744a576.29 576.29 0 0 0 3.206 2.799h-3.081c-11.253-.001-20.774-7.551-23.765-17.852zm308.727 89.752l57.233-51.899 49.904.57-81.871 74.24-25.266-22.911zm7.861 34.126H295.12l17.467-15.839h10.563l17.466 15.839zm19.599-86.027l-82.499 74.811-82.499-74.811h164.998zm-59.529-20c.849-.842 1.677-1.675 2.49-2.493 9.531-9.587 17.059-17.16 32.89-17.16 15.832 0 23.359 7.573 32.89 17.162.812.817 1.64 1.65 2.489 2.491h-70.759zm-160.13 0a485.82 485.82 0 0 0 2.489-2.492c9.531-9.588 17.059-17.161 32.89-17.161 15.83 0 23.358 7.573 32.888 17.16.813.818 1.641 1.651 2.49 2.493h-70.757zm275.862 162.073H95.582c-29.56 0-53.608-24.049-53.608-53.608v-18.275h200.872l17.467 15.839H145.897c-5.523 0-10 4.477-10 10s4.477 10 10 10H467.07c-7.288 20.958-27.242 36.044-50.652 36.044zm53.608-56.046h-94.6l17.467-15.839h77.133v15.839zm-6.174-35.837h-48.906l54.624-49.533c11.135 2.604 19.376 12.665 19.376 24.439 0 13.836-11.257 25.094-25.094 25.094zm-2.728-70.19l.262-.227.101-.087.342-.298c.848-.738 1.682-1.469 2.501-2.187 4.105-3.601 8.089-7.095 12.04-9.819 3.446-2.375 6.868-4.164 10.326-4.925l.359-.081.04-.01.317-.076.065-.016a22.897 22.897 0 0 0 .42-.107l.196-.052a.374.374 0 0 0 .048-.012c-2.433 9.276-10.129 16.443-19.691 18.102a9.984 9.984 0 0 0-2.016-.205h-5.31zm21.271-37.073a40.746 40.746 0 0 0-4.536 1.281c-10.109 3.489-18.327 10.602-26.283 17.58l-.434.381c-9.178 8.052-17.923 15.723-29.033 17.834h-13.146c-11.249-1.93-17.833-8.552-25.823-16.591-10.213-10.275-22.923-23.062-47.074-23.062-24.15 0-36.86 12.786-47.074 23.06-7.992 8.04-14.576 14.663-25.829 16.593h-14.327c-11.253-1.93-17.837-8.553-25.829-16.593-10.213-10.274-22.923-23.06-47.072-23.06-24.151 0-36.861 12.787-47.074 23.062-7.991 8.039-14.574 14.661-25.824 16.591h-7.065c-14.134 0-24.325-8.939-35.113-18.404-9.248-8.112-18.81-16.501-31.252-19.241a12.237 12.237 0 0 1-7.025-4.453 10.027 10.027 0 0 0-1.153-1.252 12.234 12.234 0 0 1-1.428-5.727c-.001-6.788 5.52-12.309 12.307-12.309h447.384c6.787 0 12.308 5.521 12.308 12.308 0 5.729-4.039 10.776-9.605 12.002z"/>
</svg>
