<svg style="max-height:18px"
    xmlns="http://www.w3.org/2000/svg" viewBox="0 0 219.15 219.15" width="24" height="24" fill="gray">
    <path d="M109.575 0C49.156 0 .001 49.155.001 109.574c0 60.42 49.154 109.576 109.573 109.576 60.42 0 109.574-49.156 109.574-109.576C219.149 49.155 169.995 0 109.575 0zm0 204.15c-52.148 0-94.573-42.427-94.573-94.576C15.001 57.426 57.427 15 109.575 15c52.148 0 94.574 42.426 94.574 94.574 0 52.15-42.426 94.576-94.574 94.576z"/>
    <path d="M166.112 108.111h-52.051V51.249a7.5 7.5 0 0 0-15 0v64.362a7.5 7.5 0 0 0 7.5 7.5h59.551a7.5 7.5 0 0 0 0-15z"/>
</svg>
